<svg width="421" height="410" viewBox="0 0 421 410" fill="none" xmlns="http://www.w3.org/2000/svg">
<g filter="url(#filter0_f_824_11582)">
<ellipse cx="198.043" cy="337.871" rx="171.658" ry="33.1152" fill="#1F88F8" fill-opacity="0.35"/>
</g>
<path d="M204.397 378.323C302.71 378.323 382.409 298.625 382.409 200.311C382.409 101.998 302.71 22.2988 204.397 22.2988C106.084 22.2988 26.3848 101.998 26.3848 200.311C26.3848 298.625 106.084 378.323 204.397 378.323Z" fill="url(#paint0_linear_824_11582)"/>
<path d="M342.106 94.2559H116V205.837H342.106V94.2559Z" fill="url(#paint1_linear_824_11582)"/>
<path d="M342.107 94.2559H364.802C379.597 94.2559 393.786 100.133 404.247 110.595C414.709 121.056 420.586 135.245 420.586 150.04C420.586 164.835 414.709 179.024 404.247 189.485C393.786 199.947 379.597 205.824 364.802 205.824H342.107V94.2559Z" fill="url(#paint2_linear_824_11582)"/>
<path d="M356.785 110.67H369.769C379.754 110.67 389.33 114.637 396.391 121.697C403.451 128.758 407.418 138.334 407.418 148.319V151.775C407.418 161.76 403.451 171.337 396.391 178.397C389.33 185.458 379.754 189.425 369.769 189.425H356.785V110.67Z" fill="url(#paint3_linear_824_11582)"/>
<path d="M342.105 112.983H134.988V205.838H342.105V112.983Z" fill="url(#paint4_linear_824_11582)"/>
<rect x="61.9766" y="224.414" width="83.9728" height="107.544" fill="url(#paint5_linear_824_11582)"/>
<rect x="165.105" y="224.414" width="83.9728" height="107.544" fill="url(#paint6_linear_824_11582)"/>
<rect x="268.227" y="224.414" width="54.5087" height="107.544" fill="url(#paint7_linear_824_11582)"/>
<path d="M342.105 94.2559H322.801V205.837H342.105V94.2559Z" fill="url(#paint8_linear_824_11582)"/>
<path d="M165.101 205.262L145.949 205.262L145.949 351.109L165.101 351.109L165.101 205.262Z" fill="url(#paint9_linear_824_11582)"/>
<path fill-rule="evenodd" clip-rule="evenodd" d="M257.912 224.413V205.262H62.796V205.262L47.5705 205.262C44.9492 205.262 42.8242 207.387 42.8242 210.008L42.8242 346.363C42.8242 348.984 44.9492 351.109 47.5705 351.109L62.796 351.109H257.912V331.958H62.7967L62.7967 224.413H257.912Z" fill="url(#paint10_linear_824_11582)"/>
<path fill-rule="evenodd" clip-rule="evenodd" d="M268.229 205.261H322.738L341.889 205.261L341.889 346.362C341.889 348.983 339.764 351.108 337.143 351.108L322.738 351.108H268.229L249.078 351.108L249.078 210.007C249.078 207.386 251.203 205.261 253.824 205.261L268.229 205.261V205.261ZM322.738 331.957V224.412H268.23L268.23 331.957H322.738Z" fill="url(#paint11_linear_824_11582)"/>
<path d="M131.152 206.076V206.286V212.923V261.269H184.436C184.961 261.269 185.386 260.844 185.386 260.32V212.923V207.025C185.386 206.501 184.961 206.076 184.436 206.076H131.152Z" fill="url(#paint12_linear_824_11582)"/>
<path d="M127.436 206.076C126.911 206.076 126.486 206.501 126.486 207.025V260.32C126.486 260.844 126.911 261.269 127.436 261.269H180.72V206.076H127.436Z" fill="url(#paint13_linear_824_11582)"/>
<path d="M172.724 211.357H134.496C133.448 211.357 132.598 212.207 132.598 213.256V253.639C132.598 254.688 133.448 255.538 134.496 255.538H172.724C173.773 255.538 174.623 254.688 174.623 253.639V213.256C174.623 212.207 173.773 211.357 172.724 211.357Z" fill="url(#paint14_linear_824_11582)"/>
<g filter="url(#filter1_d_824_11582)">
<path d="M31.041 168.723L51.436 218.882C51.7146 219.57 52.1261 220.196 52.647 220.724C53.168 221.252 53.7881 221.673 54.4717 221.961C55.1554 222.249 55.8892 222.399 56.6311 222.403C57.373 222.407 58.1083 222.265 58.795 221.984L104.5 203.415C105.89 202.85 106.998 201.756 107.582 200.374C108.166 198.991 108.178 197.434 107.614 196.043L84.0391 138.065C83.4736 136.678 82.3811 135.573 81.0013 134.991C79.6215 134.41 78.0673 134.4 76.6801 134.963L38.7023 150.404L31.041 168.723Z" fill="url(#paint15_linear_824_11582)"/>
</g>
<g filter="url(#filter2_d_824_11582)">
<path d="M354.057 139.258L333.662 189.418C333.383 190.105 332.972 190.731 332.451 191.259C331.93 191.788 331.31 192.208 330.626 192.496C329.942 192.784 329.208 192.934 328.467 192.938C327.725 192.942 326.989 192.8 326.303 192.519L280.598 173.951C279.208 173.385 278.1 172.291 277.516 170.909C276.932 169.526 276.92 167.969 277.483 166.578L301.059 108.6C301.624 107.213 302.717 106.108 304.096 105.527C305.476 104.945 307.03 104.935 308.418 105.499L346.395 120.939L354.057 139.258Z" fill="url(#paint16_linear_824_11582)"/>
</g>
<path d="M31.041 168.723L44.0113 163.453L38.7154 150.404L31.041 168.723Z" fill="url(#paint17_linear_824_11582)"/>
<path d="M354.057 139.259L341.086 133.99L346.382 120.94L354.057 139.259Z" fill="url(#paint18_linear_824_11582)"/>
<path d="M159.144 235.301C160.816 234.125 162.071 232.447 162.725 230.511C163.379 228.574 163.4 226.479 162.783 224.53C162.167 222.581 160.945 220.88 159.296 219.672C157.647 218.464 155.656 217.812 153.612 217.812C151.568 217.812 149.577 218.464 147.928 219.672C146.278 220.88 145.057 222.581 144.441 224.53C143.824 226.479 143.844 228.574 144.499 230.511C145.153 232.447 146.407 234.125 148.079 235.301L143.953 249.506H163.257L159.144 235.301Z" fill="url(#paint19_linear_824_11582)"/>
<path d="M278.044 86.2279C278.044 88.2949 277.734 90.3503 277.124 92.3254C276.137 95.4923 274.391 98.3702 272.039 100.709C271.348 101.408 270.606 102.054 269.818 102.641C269.3 103.045 268.755 103.414 268.188 103.745C267.623 104.091 267.04 104.407 266.441 104.691C265.547 105.132 264.62 105.501 263.668 105.795C261.693 106.405 259.637 106.715 257.57 106.715H253.759V205.47H147.316V84.0859C147.334 79.2293 149.271 74.5766 152.705 71.1425C156.139 67.7083 160.792 65.7714 165.648 65.7541H257.518C260.077 65.7442 262.614 66.2214 264.995 67.1602C265.655 67.4162 266.3 67.7102 266.927 68.0406C267.242 68.1983 267.544 68.3691 267.847 68.5531C268.095 68.6895 268.336 68.8386 268.569 68.9999C269.811 69.7852 270.961 70.7063 271.999 71.7464C273.392 73.1426 274.578 74.7313 275.521 76.4641C276.158 77.6318 276.678 78.8599 277.072 80.1304L277.348 81.116C277.517 81.7744 277.653 82.4411 277.755 83.1135C277.932 84.1426 278.028 85.1838 278.044 86.2279Z" fill="url(#paint20_linear_824_11582)"/>
<path d="M278.045 86.2279C278.044 88.2949 277.734 90.3503 277.125 92.3254C276.722 93.5926 276.203 94.8199 275.574 95.9917C274.622 97.722 273.432 99.3101 272.039 100.709C271.348 101.408 270.606 102.054 269.818 102.641C269.293 103.035 268.754 103.39 268.189 103.745C267.623 104.091 267.04 104.407 266.441 104.691C265.545 105.127 264.618 105.496 263.668 105.795C261.693 106.405 259.638 106.715 257.571 106.715H253.76V84.0859C253.768 80.4672 254.844 76.9313 256.851 73.9207C258.859 70.9101 261.71 68.5585 265.048 67.1602C265.705 67.423 266.362 67.7121 266.98 68.0406C267.295 68.1983 267.597 68.3691 267.9 68.5531C268.148 68.6895 268.389 68.8386 268.622 68.9999C269.864 69.7852 271.014 70.7064 272.052 71.7464C273.445 73.1426 274.631 74.7313 275.574 76.4641C276.206 77.6344 276.725 78.862 277.125 80.1304L277.401 81.116C277.572 81.7741 277.708 82.4409 277.808 83.1135C277.967 84.1439 278.046 85.1852 278.045 86.2279Z" fill="url(#paint21_linear_824_11582)"/>
<path d="M232.508 169.516H165.291C164.166 169.516 163.254 170.425 163.254 171.546C163.254 172.667 164.166 173.576 165.291 173.576H232.508C233.632 173.576 234.544 172.667 234.544 171.546C234.544 170.425 233.632 169.516 232.508 169.516Z" fill="#A5C4F1"/>
<path d="M232.508 148.688H165.291C164.166 148.688 163.254 149.597 163.254 150.718C163.254 151.839 164.166 152.748 165.291 152.748H232.508C233.632 152.748 234.544 151.839 234.544 150.718C234.544 149.597 233.632 148.688 232.508 148.688Z" fill="#A5C4F1"/>
<path d="M232.509 127.845H189.222C188.097 127.845 187.186 128.754 187.186 129.875C187.186 130.996 188.097 131.905 189.222 131.905H232.509C233.634 131.905 234.546 130.996 234.546 129.875C234.546 128.754 233.634 127.845 232.509 127.845Z" fill="#A5C4F1"/>
<path d="M204.11 107.004H164.818C163.954 107.004 163.254 107.704 163.254 108.568V109.501C163.254 110.364 163.954 111.065 164.818 111.065H204.11C204.973 111.065 205.673 110.364 205.673 109.501V108.568C205.673 107.704 204.973 107.004 204.11 107.004Z" fill="#A5C4F1"/>
<path d="M179.746 127.845H165.291C164.166 127.845 163.254 128.754 163.254 129.875C163.254 130.996 164.166 131.905 165.291 131.905H179.746C180.871 131.905 181.783 130.996 181.783 129.875C181.783 128.754 180.871 127.845 179.746 127.845Z" fill="#A5C4F1"/>
<path d="M62.7129 224.414H69.3423V331.958H62.7129V224.414Z" fill="url(#paint22_linear_824_11582)"/>
<path d="M165.105 261.245H170.998V331.959H165.105V261.245Z" fill="url(#paint23_linear_824_11582)"/>
<path d="M268.227 224.414H274.856V331.958H268.227V224.414Z" fill="url(#paint24_linear_824_11582)"/>
<g filter="url(#filter3_f_824_11582)">
<ellipse cx="87.8099" cy="133.665" rx="56.7688" ry="18.2471" fill="#FF4C77" fill-opacity="0.3"/>
</g>
<path d="M34.5778 107.074C35.6727 115.248 38.82 123.011 43.7263 129.64C48.6325 136.268 55.1377 141.546 62.6351 144.981C70.1325 148.416 78.3778 149.896 86.6018 149.283C94.8258 148.67 102.761 145.984 109.666 141.475L128.479 147.871C129.047 148.058 129.656 148.079 130.235 147.93C130.814 147.782 131.338 147.471 131.746 147.034C132.154 146.597 132.428 146.053 132.536 145.465C132.644 144.878 132.581 144.271 132.356 143.718L124.811 125.721C128.823 119.036 131.176 111.488 131.673 103.707C132.169 95.9259 130.795 88.1393 127.664 80.9988C124.533 73.8582 119.738 67.5715 113.679 62.6648C107.62 57.7581 100.473 54.3741 92.838 52.7962C85.2027 51.2183 77.3005 51.4924 69.7928 53.5954C62.2851 55.6984 55.3904 59.5692 49.6857 64.8839C43.9811 70.1985 39.6326 76.8024 37.0041 84.1426C34.3756 91.4829 33.5436 99.346 34.5778 107.074Z" fill="url(#paint25_linear_824_11582)"/>
<path d="M81.6795 125.574C86.98 125.574 90.7557 121.943 90.7557 116.861C90.7557 111.778 86.98 108.148 81.6795 108.148C76.4516 108.148 72.6032 111.778 72.6032 116.861C72.6032 121.943 76.4516 125.574 81.6795 125.574ZM88.9405 106.695C88.9405 101.903 91.6996 100.16 95.4754 98.4178C100.485 96.0943 104.189 91.3747 104.189 85.5659C104.189 76.417 95.1849 70.0273 82.9864 70.0273C69.9167 70.0273 60.6952 77.361 59.8965 87.599L76.5968 90.6486C77.0324 86.655 79.1381 83.8232 82.1151 83.8232C84.366 83.8232 86.0361 85.348 86.0361 87.4537C86.0361 89.9225 83.5673 91.4473 81.6069 92.609C76.3789 96.0217 74.4185 99.7974 74.4185 106.695H88.9405Z" fill="white"/>
<path d="M326.458 72.1109C326.458 76.6148 322.807 80.266 318.303 80.266C313.799 80.266 310.148 76.6148 310.148 72.1109C310.148 67.607 313.799 63.9558 318.303 63.9558C322.807 63.9558 326.458 67.607 326.458 72.1109Z" stroke="url(#paint26_linear_824_11582)" stroke-width="2.61276"/>
<circle cx="274.85" cy="368.538" r="8.1551" stroke="url(#paint27_linear_824_11582)" stroke-width="2.61276"/>
<path d="M26.5237 272.268C27.8477 272.056 28.9047 273.357 28.4263 274.61L22.2267 290.843C21.7483 292.096 20.0933 292.361 19.2477 291.32L8.28877 277.835C7.44315 276.794 8.04112 275.228 9.36512 275.016L26.5237 272.268Z" fill="url(#paint28_linear_824_11582)"/>
<path d="M367.373 259.699C367.042 258.399 368.242 257.229 369.532 257.591L386.262 262.292C387.553 262.655 387.967 264.279 387.007 265.216L374.571 277.353C373.612 278.29 371.998 277.836 371.667 276.537L367.373 259.699Z" fill="url(#paint29_linear_824_11582)"/>
<path d="M188.71 8.9884C189.225 6.85543 192.259 6.85543 192.774 8.98841L196.75 25.461C196.934 26.2233 197.529 26.8184 198.292 27.0024L214.764 30.9788C216.897 31.4937 216.897 34.5276 214.764 35.0425L198.292 39.0189C197.529 39.2029 196.934 39.798 196.75 40.5602L192.774 57.0329C192.259 59.1658 189.225 59.1658 188.71 57.0329L184.734 40.5602C184.55 39.798 183.955 39.2029 183.192 39.0189L166.72 35.0425C164.587 34.5276 164.587 31.4937 166.72 30.9788L183.192 27.0024C183.955 26.8184 184.55 26.2233 184.734 25.461L188.71 8.9884Z" fill="url(#paint30_linear_824_11582)"/>
<path d="M106.454 353.526C106.969 351.393 110.003 351.393 110.518 353.526L114.494 369.998C114.678 370.76 115.274 371.355 116.036 371.539L132.508 375.516C134.641 376.031 134.641 379.065 132.508 379.58L116.036 383.556C115.274 383.74 114.678 384.335 114.494 385.097L110.518 401.57C110.003 403.703 106.969 403.703 106.454 401.57L102.478 385.097C102.294 384.335 101.699 383.74 100.937 383.556L84.464 379.58C82.331 379.065 82.331 376.031 84.464 375.516L100.937 371.539C101.699 371.355 102.294 370.76 102.478 369.998L106.454 353.526Z" fill="url(#paint31_linear_824_11582)"/>
<defs>
<filter id="filter0_f_824_11582" x="4.61177" y="282.983" width="386.862" height="109.776" filterUnits="userSpaceOnUse" color-interpolation-filters="sRGB">
<feFlood flood-opacity="0" result="BackgroundImageFix"/>
<feBlend mode="normal" in="SourceGraphic" in2="BackgroundImageFix" result="shape"/>
<feGaussianBlur stdDeviation="10.8865" result="effect1_foregroundBlur_824_11582"/>
</filter>
<filter id="filter1_d_824_11582" x="28.1933" y="134.548" width="95.9733" height="107.79" filterUnits="userSpaceOnUse" color-interpolation-filters="sRGB">
<feFlood flood-opacity="0" result="BackgroundImageFix"/>
<feColorMatrix in="SourceAlpha" type="matrix" values="0 0 0 0 0 0 0 0 0 0 0 0 0 0 0 0 0 0 127 0" result="hardAlpha"/>
<feOffset dx="6.64476" dy="10.4418"/>
<feGaussianBlur stdDeviation="4.74626"/>
<feComposite in2="hardAlpha" operator="out"/>
<feColorMatrix type="matrix" values="0 0 0 0 0.184314 0 0 0 0 0.254902 0 0 0 0 0.443137 0 0 0 0.15 0"/>
<feBlend mode="normal" in2="BackgroundImageFix" result="effect1_dropShadow_824_11582"/>
<feBlend mode="normal" in="SourceGraphic" in2="effect1_dropShadow_824_11582" result="shape"/>
</filter>
<filter id="filter2_d_824_11582" x="274.221" y="105.083" width="95.9733" height="107.79" filterUnits="userSpaceOnUse" color-interpolation-filters="sRGB">
<feFlood flood-opacity="0" result="BackgroundImageFix"/>
<feColorMatrix in="SourceAlpha" type="matrix" values="0 0 0 0 0 0 0 0 0 0 0 0 0 0 0 0 0 0 127 0" result="hardAlpha"/>
<feOffset dx="6.64476" dy="10.4418"/>
<feGaussianBlur stdDeviation="4.74626"/>
<feComposite in2="hardAlpha" operator="out"/>
<feColorMatrix type="matrix" values="0 0 0 0 0.184314 0 0 0 0 0.254902 0 0 0 0 0.443137 0 0 0 0.15 0"/>
<feBlend mode="normal" in2="BackgroundImageFix" result="effect1_dropShadow_824_11582"/>
<feBlend mode="normal" in="SourceGraphic" in2="effect1_dropShadow_824_11582" result="shape"/>
</filter>
<filter id="filter3_f_824_11582" x="9.26802" y="93.645" width="157.083" height="80.0401" filterUnits="userSpaceOnUse" color-interpolation-filters="sRGB">
<feFlood flood-opacity="0" result="BackgroundImageFix"/>
<feBlend mode="normal" in="SourceGraphic" in2="BackgroundImageFix" result="shape"/>
<feGaussianBlur stdDeviation="10.8865" result="effect1_foregroundBlur_824_11582"/>
</filter>
<linearGradient id="paint0_linear_824_11582" x1="203.025" y1="-35.6663" x2="206.671" y2="589.486" gradientUnits="userSpaceOnUse">
<stop stop-color="#CAE0FF" stop-opacity="0"/>
<stop offset="1" stop-color="#BCD8FF"/>
</linearGradient>
<linearGradient id="paint1_linear_824_11582" x1="229.053" y1="94.2559" x2="229.053" y2="205.837" gradientUnits="userSpaceOnUse">
<stop stop-color="#ABCCFF"/>
<stop offset="1" stop-color="#70A8FF"/>
</linearGradient>
<linearGradient id="paint2_linear_824_11582" x1="381.347" y1="94.2559" x2="381.347" y2="205.824" gradientUnits="userSpaceOnUse">
<stop stop-color="#70A8FF"/>
<stop offset="1" stop-color="#5597FD"/>
</linearGradient>
<linearGradient id="paint3_linear_824_11582" x1="414.812" y1="192.002" x2="364.723" y2="125.708" gradientUnits="userSpaceOnUse">
<stop stop-color="#EDF4FF"/>
<stop offset="1" stop-color="#ABCCFF"/>
</linearGradient>
<linearGradient id="paint4_linear_824_11582" x1="238.547" y1="112.983" x2="238.547" y2="205.838" gradientUnits="userSpaceOnUse">
<stop stop-color="#2A64BE"/>
<stop offset="1" stop-color="#6095E7"/>
</linearGradient>
<linearGradient id="paint5_linear_824_11582" x1="168.784" y1="371.735" x2="65.6596" y2="274.503" gradientUnits="userSpaceOnUse">
<stop stop-color="#EDF4FF"/>
<stop offset="1" stop-color="#ABCCFF"/>
</linearGradient>
<linearGradient id="paint6_linear_824_11582" x1="253.498" y1="341.534" x2="150.373" y2="298.811" gradientUnits="userSpaceOnUse">
<stop stop-color="#EDF4FF"/>
<stop offset="1" stop-color="#ABCCFF"/>
</linearGradient>
<linearGradient id="paint7_linear_824_11582" x1="344.833" y1="343.744" x2="249.075" y2="253.142" gradientUnits="userSpaceOnUse">
<stop stop-color="#EDF4FF"/>
<stop offset="1" stop-color="#ABCCFF"/>
</linearGradient>
<linearGradient id="paint8_linear_824_11582" x1="332.453" y1="94.2559" x2="332.453" y2="205.837" gradientUnits="userSpaceOnUse">
<stop stop-color="#ABCCFF"/>
<stop offset="1" stop-color="#70A8FF"/>
</linearGradient>
<linearGradient id="paint9_linear_824_11582" x1="122.378" y1="250.195" x2="109.119" y2="379.1" gradientUnits="userSpaceOnUse">
<stop stop-color="#ABCCFF"/>
<stop offset="1" stop-color="#70A8FF"/>
</linearGradient>
<linearGradient id="paint10_linear_824_11582" x1="39.1412" y1="231.043" x2="249.81" y2="328.274" gradientUnits="userSpaceOnUse">
<stop stop-color="#ABCCFF"/>
<stop offset="1" stop-color="#70A8FF"/>
</linearGradient>
<linearGradient id="paint11_linear_824_11582" x1="414.812" y1="295.863" x2="282.962" y2="300.283" gradientUnits="userSpaceOnUse">
<stop stop-color="#70A8FF"/>
<stop offset="1" stop-color="#5597FD"/>
</linearGradient>
<linearGradient id="paint12_linear_824_11582" x1="158.269" y1="206.076" x2="158.269" y2="261.269" gradientUnits="userSpaceOnUse">
<stop stop-color="#70A8FF"/>
<stop offset="1" stop-color="#5597FD"/>
</linearGradient>
<linearGradient id="paint13_linear_824_11582" x1="153.603" y1="206.076" x2="153.603" y2="261.269" gradientUnits="userSpaceOnUse">
<stop stop-color="#ABCCFF"/>
<stop offset="1" stop-color="#70A8FF"/>
</linearGradient>
<linearGradient id="paint14_linear_824_11582" x1="153.61" y1="211.357" x2="153.61" y2="255.538" gradientUnits="userSpaceOnUse">
<stop stop-color="#70A8FF"/>
<stop offset="1" stop-color="#5597FD"/>
</linearGradient>
<linearGradient id="paint15_linear_824_11582" x1="99.6732" y1="173.648" x2="47.8374" y2="168.472" gradientUnits="userSpaceOnUse">
<stop stop-color="#C6DDFF"/>
<stop offset="1" stop-color="white"/>
</linearGradient>
<linearGradient id="paint16_linear_824_11582" x1="285.424" y1="144.183" x2="337.26" y2="139.007" gradientUnits="userSpaceOnUse">
<stop stop-color="#C6DDFF"/>
<stop offset="1" stop-color="white"/>
</linearGradient>
<linearGradient id="paint17_linear_824_11582" x1="37.5261" y1="150.404" x2="37.5261" y2="168.723" gradientUnits="userSpaceOnUse">
<stop stop-color="#EDF4FF"/>
<stop offset="1" stop-color="#ABCCFF"/>
</linearGradient>
<linearGradient id="paint18_linear_824_11582" x1="347.572" y1="120.94" x2="347.572" y2="139.259" gradientUnits="userSpaceOnUse">
<stop stop-color="#EDF4FF"/>
<stop offset="1" stop-color="#ABCCFF"/>
</linearGradient>
<linearGradient id="paint19_linear_824_11582" x1="148.899" y1="240.619" x2="168.051" y2="241.356" gradientUnits="userSpaceOnUse">
<stop stop-color="#2A64BE"/>
<stop offset="1" stop-color="#4B80D1"/>
</linearGradient>
<linearGradient id="paint20_linear_824_11582" x1="212.68" y1="65.7539" x2="212.68" y2="205.47" gradientUnits="userSpaceOnUse">
<stop stop-color="#EDF4FF"/>
<stop offset="1" stop-color="#ABCCFF"/>
</linearGradient>
<linearGradient id="paint21_linear_824_11582" x1="268.965" y1="101.401" x2="240.238" y2="79.3026" gradientUnits="userSpaceOnUse">
<stop stop-color="#EDF4FF"/>
<stop offset="1" stop-color="#ABCCFF"/>
</linearGradient>
<linearGradient id="paint22_linear_824_11582" x1="16.3069" y1="326.802" x2="155.759" y2="311.136" gradientUnits="userSpaceOnUse">
<stop offset="0.09375" stop-color="#2A64BE"/>
<stop offset="1" stop-color="#2A64BE" stop-opacity="0"/>
</linearGradient>
<linearGradient id="paint23_linear_824_11582" x1="123.856" y1="328.569" x2="246.548" y2="309.936" gradientUnits="userSpaceOnUse">
<stop offset="0.09375" stop-color="#2A64BE"/>
<stop offset="1" stop-color="#2A64BE" stop-opacity="0"/>
</linearGradient>
<linearGradient id="paint24_linear_824_11582" x1="221.821" y1="326.802" x2="336.109" y2="336.831" gradientUnits="userSpaceOnUse">
<stop offset="0.09375" stop-color="#265FB8"/>
<stop offset="1" stop-color="#84B4FF"/>
</linearGradient>
<linearGradient id="paint25_linear_824_11582" x1="34.6172" y1="58.3549" x2="131.888" y2="150.547" gradientUnits="userSpaceOnUse">
<stop stop-color="#FF698D"/>
<stop offset="1" stop-color="#FF3868"/>
</linearGradient>
<linearGradient id="paint26_linear_824_11582" x1="306.674" y1="66.1975" x2="336.241" y2="91.8223" gradientUnits="userSpaceOnUse">
<stop stop-color="#94BFFF"/>
<stop offset="1" stop-color="#4C94FE"/>
</linearGradient>
<linearGradient id="paint27_linear_824_11582" x1="263.22" y1="362.624" x2="292.788" y2="388.249" gradientUnits="userSpaceOnUse">
<stop stop-color="#94BFFF"/>
<stop offset="1" stop-color="#4C94FE"/>
</linearGradient>
<linearGradient id="paint28_linear_824_11582" x1="29.5027" y1="271.791" x2="8.52344" y2="288.84" gradientUnits="userSpaceOnUse">
<stop stop-color="#70A8FF"/>
<stop offset="1" stop-color="#5597FD"/>
</linearGradient>
<linearGradient id="paint29_linear_824_11582" x1="366.628" y1="256.775" x2="385.509" y2="276.121" gradientUnits="userSpaceOnUse">
<stop stop-color="#70A8FF"/>
<stop offset="1" stop-color="#5597FD"/>
</linearGradient>
<linearGradient id="paint30_linear_824_11582" x1="190.742" y1="0.571289" x2="190.742" y2="65.45" gradientUnits="userSpaceOnUse">
<stop stop-color="#70A8FF"/>
<stop offset="1" stop-color="#5597FD"/>
</linearGradient>
<linearGradient id="paint31_linear_824_11582" x1="108.486" y1="345.108" x2="108.486" y2="409.987" gradientUnits="userSpaceOnUse">
<stop stop-color="#70A8FF"/>
<stop offset="1" stop-color="#5597FD"/>
</linearGradient>
</defs>
</svg>
