<svg width="14" height="15" viewBox="0 0 14 15" fill="none" xmlns="http://www.w3.org/2000/svg">
<path d="M13.4699 3.66337L10.3781 0.571539C10.0538 0.247454 9.61883 0.0582844 9.16069 0.0421407C8.70255 0.025997 8.25531 0.184078 7.90907 0.484539C7.56284 0.784999 7.34333 1.20551 7.29478 1.66136C7.24623 2.11721 7.37224 2.57452 7.64742 2.94117L7.50411 3.10256L4.65572 4.35387L3.41283 3.68225C3.27715 3.60914 3.12117 3.58278 2.96901 3.60724C2.81684 3.63169 2.67698 3.7056 2.57104 3.81753L1.35924 5.10099C1.23332 5.23304 1.16424 5.40922 1.16686 5.59167C1.16947 5.77411 1.24356 5.94825 1.37321 6.07664L4.33904 9.04244L0 13.3814L0 14.0414H0.65999L4.999 9.70243L7.95126 12.6547C8.07898 12.7832 8.25164 12.8569 8.43276 12.8604C8.61388 12.8639 8.78926 12.7969 8.92184 12.6734L10.2176 11.4738C10.332 11.368 10.4078 11.2271 10.4331 11.0734C10.4583 10.9197 10.4315 10.762 10.3569 10.6252L9.67595 9.37513L10.9048 6.73496L11.1557 6.43401C11.5276 6.69163 11.9825 6.80082 12.4308 6.74013C12.8791 6.67943 13.2886 6.45323 13.5786 6.10599C13.8687 5.75874 14.0183 5.31557 13.9982 4.86358C13.9781 4.41159 13.7896 3.98347 13.4699 3.66337V3.66337ZM12.8099 5.56605C12.6451 5.73081 12.4216 5.82336 12.1886 5.82336C11.9556 5.82336 11.7321 5.73081 11.5673 5.56605L11.0748 5.07351L10.1099 6.23085L8.63109 9.40824L9.45034 10.9123L8.45252 11.8361L2.19345 5.57699L3.12684 4.58847L4.61351 5.39185L8.06662 3.87487L8.91767 2.91632L8.47553 2.4741C8.31474 2.30851 8.22555 2.0863 8.22725 1.85549C8.22894 1.62468 8.32138 1.4038 8.4846 1.24059C8.64781 1.07738 8.86868 0.984938 9.09949 0.983242C9.3303 0.981547 9.55251 1.07073 9.7181 1.23153L12.8099 4.32336C12.9747 4.48815 13.0672 4.71163 13.0672 4.94465C13.0672 5.17767 12.9747 5.40114 12.8099 5.56593L12.8099 5.56605Z" fill="white"/>
</svg>
