<svg width="384" height="185" viewBox="0 0 384 185" fill="none" xmlns="http://www.w3.org/2000/svg">
<path fill-rule="evenodd" clip-rule="evenodd" d="M1 1C4.5 17.5 15.5 28.5 35.5 30H349C367.778 30 383 45.2223 383 64V184H1V64.5V64V1Z" fill="white"/>
<path d="M35.5 30L35.4626 30.4986L35.4813 30.5H35.5V30ZM1 1L1.48912 0.896248L0.5 1H1ZM383 184V184.5H383.5V184H383ZM1 184H0.5V184.5H1V184ZM35.5374 29.5014C25.6232 28.7578 17.9831 25.6641 12.3926 20.7495C6.80165 15.8343 3.22152 9.06328 1.48912 0.896248L0.510883 1.10375C2.27848 9.43672 5.94835 16.4157 11.7324 21.5005C17.5169 26.5859 25.3768 29.7422 35.4626 30.4986L35.5374 29.5014ZM35.5 30.5H349V29.5H35.5V30.5ZM349 30.5C367.502 30.5 382.5 45.4985 382.5 64H383.5C383.5 44.9462 368.054 29.5 349 29.5V30.5ZM382.5 64V184H383.5V64H382.5ZM383 183.5H1V184.5H383V183.5ZM1.5 184V64.5H0.5V184H1.5ZM1.5 64.5V64H0.5V64.5H1.5ZM0.5 1V64H1.5V1H0.5Z" fill="#5180C0" fill-opacity="0.7"/>
</svg>
