<svg width="25" height="23" viewBox="0 0 25 23" fill="none" xmlns="http://www.w3.org/2000/svg">
<path d="M1.63231 15.7971L17.5962 15.7971L16.7947 14.1779L3.47668 14.1539C3.02631 14.1539 2.64028 13.8349 2.55986 13.3935L0.715494 3.15416C0.66724 2.88561 0.73962 2.60909 0.91655 2.39904C1.004 2.29566 1.11307 2.21239 1.2362 2.155C1.35933 2.09761 1.49358 2.06747 1.62963 2.06668L18.572 2.01084L18.7168 1.33549C18.8079 0.904751 19.1993 0.591003 19.6443 0.591003L23.7861 0.591003C24.0371 0.591003 24.2778 0.689889 24.4553 0.865908C24.6327 1.04193 24.7324 1.28066 24.7324 1.52959C24.7324 1.77851 24.6327 2.01725 24.4553 2.19326C24.2778 2.36928 24.0371 2.46817 23.7861 2.46817L20.411 2.46817L19.7784 5.45143L18.2209 12.9308L20.2261 16.1773C20.3302 16.3167 20.3929 16.4823 20.4071 16.6552C20.4213 16.8281 20.3865 17.0015 20.3065 17.1558C20.1456 17.4722 19.8213 17.6716 19.462 17.6716H17.7785C18.1374 18.1444 18.3313 18.7203 18.3308 19.3121C18.3308 20.8171 17.0976 22.0402 15.5803 22.0402C14.063 22.0402 12.8298 20.8171 12.8298 19.3121C12.8298 18.7192 13.0282 18.1422 13.3821 17.6716L9.06338 17.6716C9.42228 18.1444 9.61614 18.7203 9.61562 19.3121C9.61562 20.8171 8.38247 22.0402 6.86516 22.0402C5.34785 22.0402 4.1147 20.8171 4.1147 19.3121C4.1147 18.7192 4.31307 18.1422 4.66693 17.6716H1.62963C1.10956 17.6716 0.683325 17.2515 0.683325 16.733C0.684881 16.4844 0.785534 16.2464 0.96332 16.0711C1.14111 15.8957 1.38159 15.7972 1.63231 15.7971ZM18.178 3.86142L2.74215 3.91194L4.2541 12.3087L16.3792 12.3299L18.178 3.86142ZM15.5803 20.1524C16.0468 20.1524 16.4274 19.7748 16.4274 19.3121C16.4274 18.8495 16.0468 18.4719 15.5803 18.4719C15.1139 18.4719 14.7332 18.8495 14.7332 19.3121C14.7332 19.535 14.8224 19.7487 14.9813 19.9063C15.1402 20.0638 15.3556 20.1524 15.5803 20.1524ZM6.86516 20.1524C7.33161 20.1524 7.71228 19.7748 7.71228 19.3121C7.71228 18.8495 7.33161 18.4719 6.86516 18.4719C6.3987 18.4719 6.01804 18.8495 6.01804 19.3121C6.01804 19.535 6.10729 19.7487 6.26615 19.9063C6.42502 20.0638 6.64049 20.1524 6.86516 20.1524Z" fill="white"/>
</svg>
