<svg width="25" height="22" viewBox="0 0 25 22" fill="none" xmlns="http://www.w3.org/2000/svg">
<path d="M0.948719 15.2061L16.9126 15.2061L16.1111 13.5869L2.79308 13.5629C2.34272 13.5629 1.95669 13.2439 1.87626 12.8025L0.0319004 2.56316C-0.0163536 2.29461 0.0560265 2.01809 0.232956 1.80804C0.320402 1.70466 0.429474 1.62139 0.552608 1.564C0.675743 1.5066 0.809988 1.47647 0.946037 1.47568L17.8884 1.41984L18.0332 0.744485C18.1243 0.313747 18.5157 0 18.9607 0L23.1025 0C23.3535 0 23.5942 0.098886 23.7717 0.274905C23.9491 0.450923 24.0488 0.689655 24.0488 0.938583C24.0488 1.18751 23.9491 1.42624 23.7717 1.60226C23.5942 1.77828 23.3535 1.87717 23.1025 1.87717L19.7274 1.87717L19.0948 4.86042L17.5373 12.3398L19.5425 15.5863C19.6466 15.7257 19.7093 15.8913 19.7235 16.0642C19.7378 16.2371 19.7029 16.4105 19.6229 16.5648C19.462 16.8812 19.1377 17.0806 18.7785 17.0806H17.0949C17.4538 17.5534 17.6477 18.1293 17.6472 18.7211C17.6472 20.2261 16.414 21.4492 14.8967 21.4492C13.3794 21.4492 12.1463 20.2261 12.1463 18.7211C12.1463 18.1282 12.3446 17.5512 12.6985 17.0806L8.37979 17.0806C8.73869 17.5534 8.93255 18.1293 8.93202 18.7211C8.93202 20.2261 7.69887 21.4492 6.18156 21.4492C4.66425 21.4492 3.4311 20.2261 3.4311 18.7211C3.4311 18.1282 3.62948 17.5512 3.98334 17.0806H0.946037C0.42597 17.0806 -0.000268936 16.6605 -0.000268936 16.142C0.00128746 15.8934 0.10194 15.6554 0.279726 15.4801C0.457512 15.3047 0.698 15.2062 0.948719 15.2061ZM17.4944 3.27042L2.05855 3.32094L3.5705 11.7177L15.6956 11.7389L17.4944 3.27042ZM14.8967 19.5613C15.3632 19.5613 15.7438 19.1838 15.7438 18.7211C15.7438 18.2585 15.3632 17.8809 14.8967 17.8809C14.4303 17.8809 14.0496 18.2585 14.0496 18.7211C14.0496 18.944 14.1388 19.1577 14.2977 19.3153C14.4566 19.4728 14.672 19.5613 14.8967 19.5613ZM6.18156 19.5613C6.64801 19.5613 7.02868 19.1838 7.02868 18.7211C7.02868 18.2585 6.64801 17.8809 6.18156 17.8809C5.71511 17.8809 5.33444 18.2585 5.33444 18.7211C5.33444 18.944 5.42369 19.1577 5.58256 19.3153C5.74142 19.4728 5.95689 19.5613 6.18156 19.5613Z" fill="#0061AF"/>
</svg>
