<svg width="27" height="25" viewBox="0 0 27 25" fill="none" xmlns="http://www.w3.org/2000/svg">
<path d="M14.5 17C16.9853 17 19 14.9853 19 12.5C19 10.0147 16.9853 8 14.5 8C12.0147 8 10 10.0147 10 12.5C10 14.9853 12.0147 17 14.5 17Z" stroke="#333333"/>
<path d="M4.5 12.3158C4.5 6.79295 8.97715 2.3158 14.5 2.3158C20.0228 2.3158 24.5 6.79295 24.5 12.3158C24.5 17.8386 20.0228 22.3158 14.5 22.3158C11.3118 22.3158 8.47212 20.8238 6.64099 18.5" stroke="#333333" stroke-width="2.5"/>
<path d="M4.21981 14.7123C4.1539 14.6938 4.09715 14.6478 4.05619 14.5798L2.26191 11.595C2.20478 11.5 2.18242 11.3687 2.19974 11.23C2.21706 11.0913 2.27264 10.9565 2.35425 10.8553C2.43586 10.7541 2.53683 10.6948 2.63493 10.6904C2.73303 10.6861 2.82023 10.737 2.87735 10.832L4.5769 12L6.67579 10.6672C6.71609 10.6167 6.76162 10.576 6.80977 10.5473C6.85793 10.5187 6.90778 10.5026 6.95647 10.5C7.00515 10.4974 7.05173 10.5084 7.09353 10.5324C7.13533 10.5563 7.17154 10.5927 7.2001 10.6396C7.22865 10.6864 7.24898 10.7427 7.25994 10.8052C7.2709 10.8677 7.27227 10.9353 7.26396 11.0041C7.25566 11.0729 7.23784 11.1414 7.21154 11.206C7.18524 11.2705 7.15095 11.3296 7.11065 11.3801L4.5769 14.5538C4.5366 14.6045 4.49102 14.6453 4.44279 14.6741C4.39455 14.7029 4.34462 14.7191 4.29585 14.7216C4.26979 14.7223 4.24431 14.7192 4.21981 14.7123Z" fill="#333333"/>
</svg>
