<svg width="30" height="30" viewBox="0 0 30 30" fill="none" xmlns="http://www.w3.org/2000/svg">
<circle cx="15" cy="15" r="15" fill="white"/>
<path fill-rule="evenodd" clip-rule="evenodd" d="M19.8206 10.1789C20.0869 10.4452 20.0869 10.8769 19.8206 11.1431L11.1425 19.8213C10.8762 20.0875 10.4445 20.0875 10.1783 19.8213C9.91198 19.555 9.91198 19.1233 10.1783 18.857L18.8564 10.1789C19.1226 9.91263 19.5543 9.91263 19.8206 10.1789Z" fill="#666666"/>
<path fill-rule="evenodd" clip-rule="evenodd" d="M9.69757 10.3791C9.96384 10.1128 10.3312 10.0485 10.5181 10.2354L16.6093 16.3266C16.7962 16.5135 16.7319 16.8809 16.4656 17.1471C16.1993 17.4134 15.832 17.4777 15.6451 17.2908L9.55385 11.1996C9.36696 11.0127 9.4313 10.6454 9.69757 10.3791Z" fill="#666666"/>
<path fill-rule="evenodd" clip-rule="evenodd" d="M13.4359 14.1186C13.7021 13.8523 14.044 13.7625 14.1994 13.9179L19.2647 18.9832C19.4201 19.1386 19.3302 19.4804 19.0639 19.7467C18.7977 20.0129 18.4558 20.1028 18.3004 19.9474L13.2351 14.8821C13.0797 14.7267 13.1696 14.3849 13.4359 14.1186Z" fill="#666666"/>
</svg>
