<svg width="31" height="25" viewBox="0 0 31 25" fill="none" xmlns="http://www.w3.org/2000/svg">
<g clip-path="url(#clip0_653_12994)">
<path d="M6.99613 10.9048C8.18458 10.9048 9.14802 9.94139 9.14802 8.75293C9.14802 7.56448 8.18458 6.60104 6.99613 6.60104C5.80767 6.60104 4.84424 7.56448 4.84424 8.75293C4.84424 9.94139 5.80767 10.9048 6.99613 10.9048Z" fill="#D9D9D9"/>
<path d="M3.68327 5.80054C3.03085 6.12363 2.53337 6.69251 2.30015 7.38218C2.06693 8.07186 2.11704 8.82591 2.43948 9.47866L5.85614 16.3647C6.06438 16.783 6.42914 17.1023 6.87129 17.2534L22.6484 22.7408C22.8696 22.8155 23.1033 22.8459 23.3362 22.8302C23.5691 22.8145 23.7966 22.753 24.0058 22.6493C24.2149 22.5456 24.4015 22.4016 24.5549 22.2256C24.7083 22.0497 24.8255 21.8452 24.8998 21.6239L28.7937 10.0575C28.8684 9.83637 28.8988 9.60265 28.8831 9.36974C28.8674 9.13683 28.8059 8.9093 28.7022 8.70018C28.5985 8.49105 28.4545 8.30444 28.2786 8.15102C28.1026 7.99761 27.8981 7.8804 27.6768 7.8061L11.6845 2.41938C11.4668 2.33617 11.2339 2.29996 11.0012 2.31312C10.7685 2.32629 10.5412 2.38854 10.3342 2.49577L3.68327 5.80054ZM5.41984 8.50923C5.79203 8.50987 6.14873 8.65826 6.41156 8.92177C6.67439 9.18528 6.82185 9.54237 6.82153 9.91455C6.82121 10.2867 6.67314 10.6436 6.40985 10.9066C6.14656 11.1697 5.7896 11.3174 5.41742 11.3174C5.04524 11.3174 4.68828 11.1697 4.425 10.9066C4.16171 10.6436 4.01364 10.2867 4.01331 9.91455C4.01299 9.54237 4.16045 9.18528 4.42328 8.92177C4.68612 8.65826 5.04282 8.50987 5.415 8.50923H5.41984Z" stroke="#333333" stroke-width="2.5" stroke-linecap="round" stroke-linejoin="round"/>
<path d="M21.7064 10.9306L14.5988 14.9923" stroke="#44494D" stroke-width="0.5" stroke-linecap="round" stroke-linejoin="round"/>
<path d="M16.3606 11.3809C16.9299 11.3809 17.3913 10.9194 17.3913 10.3502C17.3913 9.78088 16.9299 9.3194 16.3606 9.3194C15.7913 9.3194 15.3298 9.78088 15.3298 10.3502C15.3298 10.9194 15.7913 11.3809 16.3606 11.3809Z" fill="#44494D" stroke="#44494D" stroke-width="0.5" stroke-linecap="round" stroke-linejoin="round"/>
<path d="M19.661 16.7698C20.2303 16.7698 20.6918 16.3083 20.6918 15.739C20.6918 15.1698 20.2303 14.7083 19.661 14.7083C19.0917 14.7083 18.6302 15.1698 18.6302 15.739C18.6302 16.3083 19.0917 16.7698 19.661 16.7698Z" fill="#44494D" stroke="#44494D" stroke-width="0.5" stroke-linecap="round" stroke-linejoin="round"/>
</g>
<defs>
<clipPath id="clip0_653_12994">
<rect width="30" height="23.75" fill="white" transform="translate(0.5 0.440796)"/>
</clipPath>
</defs>
</svg>
