<svg width="30" height="24" viewBox="0 0 30 24" fill="none" xmlns="http://www.w3.org/2000/svg">
<path d="M3.18412 5.36017C2.5317 5.68326 2.03423 6.25214 1.80101 6.94182C1.56779 7.63149 1.6179 8.38554 1.94033 9.03829L5.35699 15.9243C5.56523 16.3426 5.92999 16.662 6.37215 16.8131L22.1493 22.3004C22.3704 22.3751 22.6041 22.4055 22.837 22.3898C23.07 22.3741 23.2975 22.3127 23.5066 22.2089C23.7157 22.1052 23.9023 21.9612 24.0558 21.7853C24.2092 21.6093 24.3264 21.4049 24.4007 21.1836L28.2945 9.61715C28.3693 9.396 28.3997 9.16228 28.384 8.92937C28.3683 8.69646 28.3068 8.46893 28.2031 8.25981C28.0993 8.05068 27.9554 7.86407 27.7794 7.71066C27.6035 7.55724 27.399 7.44003 27.1777 7.36573L11.1854 1.97901C10.9677 1.8958 10.7348 1.85959 10.5021 1.87276C10.2693 1.88592 10.042 1.94817 9.83508 2.05541L3.18412 5.36017ZM4.9207 8.06886C5.29288 8.0695 5.64958 8.21789 5.91241 8.4814C6.17525 8.74491 6.32271 9.102 6.32238 9.47418C6.32206 9.84636 6.17399 10.2032 5.9107 10.4663C5.64742 10.7293 5.29046 10.8771 4.91828 10.8771C4.54609 10.8771 4.18914 10.7293 3.92585 10.4663C3.66256 10.2032 3.51449 9.84636 3.51417 9.47418C3.51385 9.102 3.66131 8.74491 3.92414 8.4814C4.18697 8.21789 4.54367 8.0695 4.91586 8.06886H4.9207Z" stroke="#0061AF" stroke-width="2" stroke-linecap="round" stroke-linejoin="round"/>
<path d="M21.2073 10.4902L14.0996 14.5519" stroke="#0061AF" stroke-width="0.5" stroke-linecap="round" stroke-linejoin="round"/>
<path d="M15.8608 10.9404C16.4301 10.9404 16.8916 10.4789 16.8916 9.90966C16.8916 9.34039 16.4301 8.87891 15.8608 8.87891C15.2916 8.87891 14.8301 9.34039 14.8301 9.90966C14.8301 10.4789 15.2916 10.9404 15.8608 10.9404Z" fill="#0061AF" stroke="#0061AF" stroke-width="0.5" stroke-linecap="round" stroke-linejoin="round"/>
<path d="M19.1616 16.3291C19.7309 16.3291 20.1924 15.8676 20.1924 15.2983C20.1924 14.7291 19.7309 14.2676 19.1616 14.2676C18.5923 14.2676 18.1309 14.7291 18.1309 15.2983C18.1309 15.8676 18.5923 16.3291 19.1616 16.3291Z" fill="#0061AF" stroke="#0061AF" stroke-width="0.5" stroke-linecap="round" stroke-linejoin="round"/>
</svg>
