<svg width="24" height="19" viewBox="0 0 24 19" fill="none" xmlns="http://www.w3.org/2000/svg">
<path d="M22.1818 0.631836H1.81819C1.43242 0.631836 1.06245 0.789871 0.789674 1.07118C0.516894 1.35248 0.363647 1.73401 0.363647 2.13184V17.1318C0.363647 17.5297 0.516894 17.9112 0.789674 18.1925C1.06245 18.4738 1.43242 18.6318 1.81819 18.6318H22.1818C22.5676 18.6318 22.9376 18.4738 23.2103 18.1925C23.4831 17.9112 23.6364 17.5297 23.6364 17.1318V2.13184C23.6364 1.73401 23.4831 1.35248 23.2103 1.07118C22.9376 0.789871 22.5676 0.631836 22.1818 0.631836ZM21.0618 17.1318H3.02547L8.11637 11.7018L7.0691 10.6593L1.81819 16.2618V3.27184L10.8582 12.5493C11.1307 12.8287 11.4994 12.9855 11.8836 12.9855C12.2679 12.9855 12.6366 12.8287 12.9091 12.5493L22.1818 3.03934V16.1643L16.8291 10.6443L15.8036 11.7018L21.0618 17.1318ZM2.77092 2.13184H21.0036L11.8836 11.4843L2.77092 2.13184Z" fill="#CBCBCB"/>
</svg>
