<svg width="30" height="30" viewBox="0 0 30 30" fill="none" xmlns="http://www.w3.org/2000/svg">
<g clip-path="url(#clip0_777_20505)">
<path d="M26.8602 7.50003C22.5646 5.38222 18.2685 3.26253 13.9743 1.14471C13.6818 1.00081 13.3734 0.801121 13.0321 0.903777C12.8216 0.967996 12.6149 1.12128 12.4265 1.22815C11.4374 1.79253 10.4469 2.3555 9.45742 2.92081C6.83429 4.41846 4.2107 5.91471 1.58523 7.41237C1.24679 7.60643 0.90695 7.79815 0.567575 7.99221C0.467783 8.02321 0.376395 8.0766 0.300388 8.14831C-0.0727375 8.39534 -0.073675 8.81581 0.120388 9.12237C0.175231 9.23112 0.26195 9.33097 0.38195 9.41346L12.6116 17.6705C12.8971 17.8627 13.183 18.0563 13.4676 18.2494C13.6715 18.3858 14.0291 18.3764 14.2265 18.2311C18.1691 15.293 22.1141 12.3539 26.0577 9.4144C26.3357 9.20862 26.6123 9.00284 26.8879 8.79706C27.313 8.48159 27.4035 7.77003 26.8593 7.50003" fill="#D07929"/>
<path d="M14.4999 17.4797C14.4057 17.1671 14.0837 16.9969 13.8296 16.823C9.67273 13.9871 5.51586 11.1558 1.35898 8.31518C1.31403 8.24757 1.25521 8.19029 1.18644 8.14713C1.11767 8.10398 1.04051 8.07594 0.960075 8.06487C0.565856 7.90034 0.214762 8.16706 0.0877311 8.52752C0.0145398 8.67997 -0.00654098 8.85224 0.0277311 9.01784C0.450075 11.2955 0.875231 13.575 1.29851 15.8531L2.05367 19.9125C2.15773 20.4652 2.16148 20.955 2.62789 21.3188L13.531 29.8266C14.026 30.2124 14.8159 29.971 14.7994 29.2669L14.6349 22.1794C14.6049 20.8777 14.5735 19.5769 14.5454 18.2747C14.5393 18.0225 14.5721 17.7188 14.4999 17.475" fill="#F6921E"/>
<path d="M0.442574 11.1745C0.592574 11.0925 0.771168 11.0667 0.960074 11.1455C1.11711 11.1712 1.26195 11.2509 1.35898 11.3962L13.8296 19.9041C14.0837 20.078 14.4057 20.2477 14.4999 20.5603C14.5721 20.8055 14.5393 21.1073 14.5459 21.3595C14.5745 22.6617 14.6054 23.9639 14.6354 25.2661L14.7329 29.5083C14.7741 29.415 14.8023 29.3123 14.7999 29.1895L14.6354 22.102C14.6054 20.8003 14.574 19.4977 14.5459 18.1955C14.5393 17.9447 14.5726 17.6409 14.4999 17.3962C14.4057 17.0845 14.0837 16.9134 13.8296 16.74C9.67273 13.9041 5.51586 11.0728 1.35898 8.23219C1.31374 8.16479 1.25486 8.10765 1.18615 8.06445C1.11743 8.02125 1.04041 7.99296 0.960074 7.9814C0.565856 7.81781 0.214762 8.085 0.0877305 8.445C0.0145416 8.59728 -0.00654126 8.7694 0.0277305 8.93484C0.164605 9.68156 0.303355 10.4278 0.442574 11.1745Z" fill="#9A5524"/>
<path d="M26.1333 7.56564C22.268 10.4269 18.4032 13.29 14.5369 16.1517C14.2782 16.342 14.0194 16.5347 13.7625 16.7255C13.7358 16.7447 13.7157 16.763 13.6941 16.7813C13.5239 16.9045 13.4086 17.1047 13.4143 17.3836C13.5075 21.3535 13.5989 25.3256 13.6913 29.296C13.7077 30 14.4877 30.2049 14.9504 29.797C18.3493 26.8088 21.75 23.8205 25.1518 20.8345C25.5338 20.498 25.5085 19.5891 25.5788 19.1278C25.7954 17.7239 26.0091 16.3205 26.2243 14.9166C26.5589 12.7392 26.8927 10.5656 27.2255 8.3897C27.3164 7.80002 26.7033 7.14564 26.1333 7.56798" fill="#D07929"/>
<path d="M13.6912 19.6776C13.7128 19.6612 13.7339 19.643 13.7597 19.6247C14.0156 19.4414 14.2753 19.2553 14.534 19.0739C18.3993 16.3176 22.2651 13.5623 26.1314 10.8094C26.3779 10.6322 26.6325 10.6584 26.8345 10.7836C26.9634 9.97452 27.0932 9.16312 27.2212 8.35312C27.3136 7.7864 26.7004 7.1564 26.1314 7.5614C22.2651 10.3158 18.3993 13.0716 14.534 15.8259C14.2753 16.0101 14.0156 16.1944 13.7597 16.3776C13.7339 16.3959 13.7128 16.4142 13.6912 16.4316C13.522 16.5501 13.4067 16.7433 13.4123 17.0109C13.4362 17.9826 13.4592 18.9553 13.4826 19.9284C13.5323 19.8253 13.6026 19.7395 13.6912 19.6776Z" fill="#9A5524"/>
<path d="M17.5809 2.92688L4.48828 10.3688L8.70703 13.2469L20.932 4.58063L17.5809 2.92688Z" fill="#BE202E"/>
<path d="M9.10555 3.12329L22.3196 10.2788L17.5477 13.6781L5.9668 4.91579L9.10555 3.12329Z" fill="#BE202E"/>
<path d="M8.70937 13.2469L9.28359 26.5172L5.48297 23.55L4.48828 10.3687M17.5462 13.6781V27.5156L21.8784 23.7098L22.3181 10.2787" fill="#CC2F42"/>
<path d="M12.216 2.8266C10.5609 4.1991 9.66508 6.68535 9.46023 8.5341C9.24086 10.5066 9.20055 12.5724 7.96445 14.2472C7.78726 14.4877 7.9443 14.6358 8.1932 14.4849C8.91086 14.0452 9.5282 13.5183 10.0996 12.9197C10.4643 13.6603 10.3438 14.5374 10.2613 15.3464C10.2229 15.7139 10.7704 15.2597 10.851 15.1758C12.5291 13.3388 11.9784 11.0747 12.4284 8.79332C13.6204 2.75441 13.3865 1.85722 12.216 2.8266Z" fill="#CC2F42"/>
<path d="M14.5776 8.74408C15.6346 10.8146 15.719 13.1433 17.8373 14.4521C17.9343 14.5106 18.5873 14.7985 18.4504 14.4558C18.1527 13.6997 17.7946 12.8892 17.9446 12.0783C18.6562 12.4997 19.394 12.8381 20.2068 13.0641C20.4885 13.141 20.5944 12.9581 20.3582 12.7735C18.7143 11.4985 18.1105 9.52362 17.3624 7.68565C16.6584 5.96205 15.1204 3.81237 13.1526 2.94658C11.7618 2.33299 11.7838 3.25924 14.5776 8.74362" fill="#CC2F42"/>
<path d="M6.61853 1.6336C8.39884 1.38516 12.4526 2.1136 12.6701 3.67454C12.8867 5.23454 9.18541 7.03969 7.4065 7.28813C5.62712 7.53516 4.55603 6.39188 4.339 4.83188C4.11962 3.26954 4.84009 1.88063 6.61853 1.6336ZM17.9388 0.0590671C16.1576 0.308442 12.4568 2.1136 12.6748 3.67454C12.8913 5.23454 16.947 5.96157 18.7226 5.71547C20.5057 5.46704 21.2224 4.07672 21.0049 2.51579C20.7888 0.951567 19.7187 -0.187495 17.9388 0.0590671Z" fill="#CC2F42"/>
<path d="M15.9076 2.89455C15.9475 3.1818 15.9305 3.4741 15.8573 3.75474C15.7842 4.03538 15.6565 4.29886 15.4815 4.53011C15.3065 4.76136 15.0876 4.95585 14.8374 5.10246C14.5872 5.24907 14.3105 5.34493 14.0232 5.38455L11.8412 5.68877C11.2615 5.76989 10.6732 5.61745 10.2058 5.26496C9.73847 4.91247 9.43022 4.3888 9.34886 3.80908C9.26885 3.22884 9.42233 2.64056 9.77562 2.17337C10.1289 1.70618 10.6531 1.39826 11.2332 1.3172L13.4186 1.01299C13.9987 0.933232 14.5868 1.08683 15.0538 1.44008C15.5209 1.79334 15.8288 2.31741 15.91 2.89736" fill="#EF556C"/>
</g>
<defs>
<clipPath id="clip0_777_20505">
<rect width="30" height="30" fill="white"/>
</clipPath>
</defs>
</svg>
