<svg width="14" height="14" viewBox="0 0 14 14" fill="none" xmlns="http://www.w3.org/2000/svg">
<path fill-rule="evenodd" clip-rule="evenodd" d="M11.5 5.04102V4.54102C11.5 3.34754 11.0259 2.20295 10.182 1.35904C9.33807 0.515121 8.19347 0.0410156 7 0.0410156C5.80653 0.0410156 4.66193 0.515121 3.81802 1.35904C2.97411 2.20295 2.5 3.34754 2.5 4.54102V5.04102C1.83696 5.04102 1.20107 5.30441 0.732233 5.77325C0.263392 6.24209 0 6.87797 0 7.54102C0 8.20406 0.263392 8.83994 0.732233 9.30878C1.20107 9.77762 1.83696 10.041 2.5 10.041H3.5V4.54102C3.5 3.61276 3.86875 2.72252 4.52513 2.06614C5.1815 1.40976 6.07174 1.04102 7 1.04102C7.92826 1.04102 8.8185 1.40976 9.47487 2.06614C10.1313 2.72252 10.5 3.61276 10.5 4.54102V10.041H11.5C11.5752 10.041 11.6501 10.0376 11.7245 10.0309C11.5785 11.4079 10.8103 12.5339 9.50112 12.709C9.34008 12.7305 9.17239 12.7485 8.99843 12.7621C8.79966 12.4666 8.2553 12.2409 7.60739 12.2171C6.77952 12.1867 6.09609 12.4977 6.0809 12.9116C6.06572 13.3255 6.72453 13.6857 7.5524 13.7161C8.20809 13.7401 8.77317 13.5501 8.98741 13.2643C9.1885 13.2497 9.38201 13.2294 9.56741 13.2046C11.2469 12.9799 12.1133 11.5072 12.235 9.93052C12.6213 9.81168 12.9767 9.59981 13.2678 9.30878C13.7366 8.83994 14 8.20406 14 7.54102C14 6.87797 13.7366 6.24209 13.2678 5.77325C12.7989 5.30441 12.163 5.04102 11.5 5.04102ZM1 7.54102C1 7.14319 1.15804 6.76166 1.43934 6.48036C1.72064 6.19905 2.10218 6.04102 2.5 6.04102V9.04102C2.10218 9.04102 1.72064 8.88298 1.43934 8.60168C1.15804 8.32037 1 7.93884 1 7.54102ZM11.5 6.04102C11.8978 6.04102 12.2794 6.19905 12.5607 6.48036C12.842 6.76166 13 7.14319 13 7.54102C13 7.93884 12.842 8.32037 12.5607 8.60168C12.2794 8.88298 11.8978 9.04102 11.5 9.04102V6.04102Z" fill="white"/>
</svg>
