<svg width="20" height="24" viewBox="0 0 20 24" fill="none" xmlns="http://www.w3.org/2000/svg">
<path d="M2.84702 18.806L3.75017 19.6958C5.506 21.4257 7.81181 22.2834 10.1131 22.269C12.3395 22.228 14.5533 21.3706 16.2522 19.6967L17.1401 18.8219C19.8219 15.377 19.5626 10.4234 16.3621 7.27027L10.4661 1.4614C10.3026 1.30031 9.98965 1.42651 9.96157 1.65433C9.88299 2.29183 9.65438 3.37521 9.0026 4.80992C7.91566 7.2025 6.50972 11.6355 4.51542 11.1038C3.01969 10.5721 6.02027 5.51506 4.51542 6.40497C4.10718 6.64639 3.63744 7.26998 3.63744 7.26998C0.441637 10.4185 0.178568 15.3613 2.84702 18.806Z" stroke="white" stroke-width="2"/>
<path d="M7.21762 20.1924L7.56955 20.5677C8.25235 21.2958 9.14903 21.6569 10.0439 21.6508C10.9097 21.6335 11.7705 21.2726 12.4312 20.5681L12.7772 20.1991C13.8195 18.7491 13.7184 16.6645 12.4741 15.3375L9.99975 12.6989L7.52554 15.3374C6.28297 16.6624 6.18049 18.7425 7.21762 20.1924Z" stroke="white" stroke-width="2"/>
</svg>
