<svg width="25" height="25" viewBox="0 0 25 25" fill="none" xmlns="http://www.w3.org/2000/svg">
<rect x="0.333374" y="0.5" width="24" height="24" rx="12" fill="#14AB34"/>
<path d="M18.4996 16.233V18.19C18.5003 18.3717 18.463 18.5515 18.3901 18.718C18.3172 18.8845 18.2102 19.0339 18.0761 19.1567C17.942 19.2795 17.7836 19.373 17.6111 19.4312C17.4387 19.4894 17.256 19.5111 17.0747 19.4947C15.0633 19.2766 13.1313 18.5907 11.4338 17.492C9.85449 16.4905 8.51552 15.1541 7.51197 13.578C6.40731 11.8761 5.71986 9.93855 5.50531 7.92217C5.48897 7.74177 5.51045 7.55996 5.56838 7.38831C5.62631 7.21665 5.71942 7.05892 5.84178 6.92514C5.96413 6.79137 6.11306 6.68449 6.27907 6.6113C6.44509 6.53812 6.62455 6.50023 6.80604 6.50006H8.76695C9.08417 6.49695 9.39169 6.60906 9.63221 6.81549C9.87273 7.02193 10.0298 7.30861 10.0742 7.62209C10.157 8.24838 10.3105 8.86332 10.5318 9.45517C10.6197 9.68866 10.6387 9.94241 10.5866 10.1864C10.5345 10.4303 10.4134 10.6542 10.2376 10.8316L9.40751 11.6601C10.338 13.2933 11.6929 14.6455 13.3293 15.5741L14.1595 14.7457C14.3372 14.5703 14.5615 14.4494 14.806 14.3974C15.0504 14.3453 15.3047 14.3643 15.5386 14.4521C16.1316 14.673 16.7478 14.8261 17.3753 14.9087C17.6929 14.9534 17.9828 15.1131 18.1901 15.3572C18.3974 15.6014 18.5076 15.9131 18.4996 16.233Z" fill="white"/>
</svg>
