<svg width="19" height="25" viewBox="0 0 19 25" fill="none" xmlns="http://www.w3.org/2000/svg">
<g clip-path="url(#clip0_653_12975)">
<path d="M14.9259 1.46411H4.0742C2.78994 1.46411 1.74884 2.50521 1.74884 3.78947V20.8421C1.74884 22.1264 2.78994 23.1675 4.0742 23.1675H14.9259C16.2101 23.1675 17.2512 22.1264 17.2512 20.8421V3.78947C17.2512 2.50521 16.2101 1.46411 14.9259 1.46411Z" stroke="#333333" stroke-width="2.5" stroke-linejoin="round"/>
<path d="M7.17462 3.78946H11.8253Z" fill="#0061AF"/>
<path d="M7.17462 3.78946H11.8253" stroke="white" stroke-linecap="round" stroke-linejoin="round"/>
<path d="M9.87665 8.50013V8.50008C9.44416 8.50008 9.07193 8.66263 8.81191 8.94254C8.55286 9.22141 8.41095 9.61948 8.44334 10.0677L9.87665 8.50013ZM9.87665 8.50013L9.88384 8.50002M9.87665 8.50013L9.88384 8.50002M9.88384 8.50002C10.0814 8.49718 10.2774 8.53558 10.4593 8.61277C10.6407 8.68975 10.8041 8.80363 10.9392 8.94715C11.2048 9.23452 11.3424 9.62729 11.3095 10.0678L11.3095 10.0682M9.88384 8.50002L11.3095 10.0682M11.3095 10.0682C11.2401 11.009 10.5364 11.6663 9.87665 11.6663C9.21664 11.6663 8.51198 11.0088 8.44336 10.0679L11.3095 10.0682ZM6.59741 16.0263V16.0264H13.1559V16.5264L13.1639 16.0265C13.1761 16.0267 13.1883 16.0242 13.1994 16.0191C13.2094 16.0147 13.2185 16.0083 13.226 16.0003C13.237 15.9862 13.2449 15.9699 13.2493 15.9526C13.254 15.9337 13.2545 15.914 13.2506 15.8949L13.2489 15.8864L13.249 15.8864C13.1182 15.1797 12.7131 14.5798 12.0486 14.1479C11.4521 13.7602 10.6805 13.5384 9.87665 13.5384C9.07282 13.5384 8.30117 13.7602 7.70464 14.1479L6.59741 16.0263ZM6.59741 16.0263L6.58943 16.0265M6.59741 16.0263L6.58943 16.0265M6.58943 16.0265C6.57718 16.0267 6.56503 16.0242 6.55385 16.0191C6.54385 16.0147 6.53483 16.0083 6.52731 16.0003C6.51634 15.9862 6.50841 15.9699 6.50402 15.9526C6.49925 15.9337 6.49878 15.914 6.50266 15.8949L6.50274 15.8949M6.58943 16.0265L6.50274 15.8949M6.50274 15.8949L6.50433 15.8864M6.50274 15.8949L6.50433 15.8864M6.50433 15.8864C6.63511 15.1797 7.0402 14.5799 7.70459 14.1479L6.50433 15.8864Z" fill="white" stroke="#333333"/>
</g>
<defs>
<clipPath id="clip0_653_12975">
<rect width="18" height="24.6316" fill="white" transform="translate(0.5)"/>
</clipPath>
</defs>
</svg>
