<svg width="326" height="52" viewBox="0 0 326 52" fill="none" xmlns="http://www.w3.org/2000/svg">
<g clip-path="url(#clip0_766_20270)">
<path d="M279.06 24.58C278.701 22.9494 277.941 21.4338 276.85 20.17C275.317 18.4758 273.298 17.2955 271.07 16.79C267.783 16.1039 264.426 15.8118 261.07 15.92C256.15 15.92 252.99 16.49 250.74 17.35C249.665 17.7943 248.684 18.4391 247.85 19.25V17.6H241.49V50.87H247.88V29.72C247.88 24.21 253.52 22.03 259.14 22.03H261.96C267.58 22.03 273.28 24.21 273.28 29.72V50.86H279.56V32.71C279.662 29.9898 279.491 27.2662 279.05 24.58H279.06Z" fill="#ED1C24"/>
<path d="M171.56 15.81H177.92C177.885 13.0892 178.072 10.3701 178.48 7.67997C178.737 6.28587 179.406 5.0007 180.4 3.98996C181.637 2.57247 183.249 1.53265 185.05 0.989965C188.158 0.296892 191.336 -0.0386191 194.52 -0.0100353H200.52L194.78 5.58996H192.35C183.89 5.58996 184.48 11 184.48 15.79H199.35L193.35 21.91H184.35V50.79H177.93V21.93H171.56V15.81Z" fill="#ED1C24"/>
<path d="M165.23 4.87V11.39H171.59V4.87H165.23Z" fill="#ED1C24"/>
<path d="M116.13 33.41C116.237 36.6793 115.77 39.942 114.75 43.05C113.83 45.58 110.66 51.3 95.3001 51.3C79.9401 51.3 76.7801 45.58 75.8501 43.05C74.8387 39.9402 74.3752 36.6784 74.4801 33.41C74.3743 30.1416 74.8379 26.8796 75.8501 23.77C76.7801 21.23 79.9401 15.52 95.3001 15.52C110.66 15.52 113.83 21.23 114.75 23.77C115.771 26.8777 116.238 30.1407 116.13 33.41ZM108.13 25.76C107.849 25.0663 107.415 24.4447 106.861 23.9411C106.307 23.4374 105.647 23.0646 104.93 22.85C103.28 22.32 100.39 22.01 95.3401 21.94C90.2901 21.87 87.4001 22.32 85.7601 22.85C85.041 23.0633 84.3792 23.4355 83.8235 23.9393C83.2678 24.443 82.8326 25.0653 82.5501 25.76C81.7805 28.2338 81.4423 30.8215 81.5501 33.41C81.4428 35.9952 81.7811 38.5795 82.5501 41.05C82.8314 41.7466 83.2661 42.3709 83.8218 42.8764C84.3775 43.3819 85.04 43.7557 85.7601 43.97C87.4001 44.5 90.2901 44.81 95.3401 44.88C100.39 44.95 103.28 44.5 104.93 43.97C105.648 43.7544 106.309 43.38 106.863 42.8746C107.417 42.3691 107.85 41.7455 108.13 41.05C108.899 38.5795 109.237 35.9952 109.13 33.41C109.238 30.8215 108.9 28.2338 108.13 25.76Z" fill="white"/>
<path d="M236.82 33.41C236.922 36.679 236.455 39.9409 235.44 43.05C234.51 45.58 231.35 51.3 215.99 51.3C200.63 51.3 197.46 45.58 196.54 43.05C195.52 39.942 195.053 36.6793 195.16 33.41C195.058 30.1395 195.532 26.8765 196.56 23.77C197.48 21.23 200.65 15.52 216.01 15.52C231.37 15.52 234.53 21.23 235.46 23.77C236.476 26.8789 236.943 30.141 236.84 33.41H236.82ZM228.82 25.76C228.537 25.0653 228.102 24.443 227.546 23.9393C226.991 23.4355 226.329 23.0633 225.61 22.85C223.97 22.32 221.08 22.01 216.03 21.94C210.98 21.87 208.09 22.32 206.44 22.85C205.723 23.0646 205.063 23.4374 204.509 23.9411C203.955 24.4447 203.521 25.0663 203.24 25.76C202.47 28.2338 202.132 30.8215 202.24 33.41C202.133 35.9952 202.471 38.5795 203.24 41.05C203.52 41.7455 203.953 42.3691 204.507 42.8746C205.061 43.38 205.722 43.7544 206.44 43.97C208.09 44.5 210.98 44.81 216.03 44.88C221.08 44.95 223.97 44.5 225.61 43.97C226.33 43.7557 226.992 43.3819 227.548 42.8764C228.104 42.3709 228.539 41.7466 228.82 41.05C229.589 38.5795 229.927 35.9952 229.82 33.41C229.928 30.8215 229.589 28.2338 228.82 25.76Z" fill="#ED1C24"/>
<path d="M69.3901 24.51C69.0303 22.8775 68.267 21.3613 67.1701 20.1C65.6168 18.4072 63.5821 17.2311 61.3401 16.73C58.0544 16.0345 54.6967 15.7391 51.3401 15.85C46.3401 15.85 43.0201 16.25 40.7501 17.1C38.8692 17.7852 37.2641 19.0671 36.1801 20.75C34.9214 19.003 33.1437 17.6977 31.1001 17.02C28.7501 16.23 24.3801 15.84 18.8701 15.84C14.7301 15.84 11.8701 16.14 10.1701 16.74C8.76709 17.2979 7.494 18.1387 6.43005 19.21V17.51H0.0600586V50.78H6.41006V29.67C6.41006 24.15 12.0201 21.97 17.6901 21.97H20.5301C26.2001 21.97 31.8601 24.15 31.8601 29.67V50.8H38.2101V29.67C38.2101 24.15 43.7601 21.97 49.4201 21.97H52.2601C57.9301 21.97 63.6101 24.15 63.6101 29.67V50.8H69.9601V32.65C70.0653 29.9293 69.891 27.2051 69.4401 24.52L69.3901 24.51Z" fill="white"/>
<path d="M321.94 35.84H325.2C325.24 35.06 325.26 34.25 325.26 33.41C325.366 30.1416 324.902 26.8796 323.89 23.77C322.96 21.23 319.8 15.52 304.44 15.52C289.08 15.52 285.92 21.23 284.99 23.77C283.974 26.8789 283.507 30.141 283.61 33.41C283.508 36.679 283.975 39.9409 284.99 43.05C285.92 45.58 289.08 51.3 304.44 51.3C319.8 51.3 322.96 45.58 323.89 43.05C323.97 42.83 324.05 42.59 324.12 42.36H316.45C315.81 43.1129 314.972 43.6708 314.03 43.97C312.38 44.5 309.49 44.81 304.44 44.88C299.39 44.95 296.5 44.5 294.85 43.97C294.132 43.7544 293.471 43.38 292.917 42.8746C292.363 42.3691 291.93 41.7455 291.65 41.05C291.087 39.3822 290.777 37.6396 290.73 35.88H321.94V35.84ZM294.85 22.84C296.5 22.31 299.39 22 304.44 21.93C309.49 21.86 312.38 22.31 314.03 22.84C314.747 23.0546 315.407 23.4274 315.961 23.9311C316.515 24.4348 316.948 25.0563 317.23 25.75C317.692 27.069 317.972 28.4451 318.06 29.84H290.81C290.905 28.4452 291.188 27.0695 291.65 25.75C291.931 25.0563 292.365 24.4348 292.919 23.9311C293.473 23.4274 294.133 23.0546 294.85 22.84Z" fill="#ED1C24"/>
<path d="M165.23 15.8101V50.8001H171.59V15.8101H165.23Z" fill="white"/>
<path d="M159.37 23.77C158.45 21.24 155.28 15.52 139.92 15.52C134.04 15.52 129.92 16.36 127.1 17.52V0.0100098H120.75V50.89H127.1V49.28C129.96 50.46 134.04 51.28 139.92 51.28C155.28 51.28 158.45 45.56 159.37 43.03C160.39 39.922 160.857 36.6593 160.75 33.39C160.858 30.1207 160.391 26.8577 159.37 23.75V23.77ZM152.71 41.06C152.428 41.7537 151.995 42.3753 151.441 42.8789C150.887 43.3826 150.227 43.7555 149.51 43.97C147.87 44.5 144.98 44.81 139.92 44.88C134.86 44.95 132.92 44.5 131.24 43.97C130.523 43.7555 129.863 43.3826 129.309 42.8789C128.755 42.3753 128.322 41.7537 128.04 41.06C127.461 39.3234 127.144 37.5101 127.1 35.68V31.14C127.144 29.3099 127.461 27.4966 128.04 25.76C128.322 25.0663 128.755 24.4447 129.309 23.9411C129.863 23.4374 130.523 23.0646 131.24 22.85C132.88 22.32 134.87 22.01 139.92 21.94C144.97 21.87 147.87 22.32 149.51 22.85C150.227 23.0646 150.887 23.4374 151.441 23.9411C151.995 24.4447 152.428 25.0663 152.71 25.76C153.479 28.2338 153.818 30.8216 153.71 33.41C153.819 35.9985 153.48 38.5864 152.71 41.06Z" fill="white"/>
</g>
<defs>
<clipPath id="clip0_766_20270">
<rect width="325.26" height="51.3" fill="white"/>
</clipPath>
</defs>
</svg>
