<svg width="14" height="12" viewBox="0 0 14 12" fill="none" xmlns="http://www.w3.org/2000/svg">
<path d="M0.875 0.791016L13.125 0.791016C13.3571 0.791016 13.5796 0.883203 13.7437 1.0473C13.9078 1.21139 14 1.43395 14 1.66602L14 10.416C14 10.6481 13.9078 10.8706 13.7437 11.0347C13.5796 11.1988 13.3571 11.291 13.125 11.291L0.875 11.291C0.642936 11.291 0.420375 11.1988 0.256281 11.0347C0.0921869 10.8706 0 10.6481 0 10.416L0 1.66602C0 1.43395 0.0921869 1.21139 0.256281 1.0473C0.420375 0.883203 0.642936 0.791016 0.875 0.791016ZM1.54875 10.416L12.3988 10.416L9.33625 7.24852L9.96625 6.64039L13.125 9.90852L13.125 2.33102L7.68687 7.74289C7.52293 7.90586 7.30116 7.99733 7.07 7.99733C6.83884 7.99733 6.61707 7.90586 6.45313 7.74289L0.875 2.19539L0.875 9.85164L4.095 6.63164L4.71187 7.24852L1.54875 10.416ZM12.5519 1.66602L1.58375 1.66602L7.07 7.12164L12.5519 1.66602Z" fill="white"/>
</svg>
