<svg width="25" height="25" viewBox="0 0 25 25" fill="none" xmlns="http://www.w3.org/2000/svg">
<g clip-path="url(#clip0_653_13002)">
<path d="M18.5 20.8797V2.45866C18.499 2.11797 18.3633 1.79152 18.1224 1.55061C17.8815 1.30971 17.555 1.17393 17.2143 1.17294H2.64289C2.3022 1.17393 1.97575 1.30971 1.73485 1.55061C1.49394 1.79152 1.35817 2.11797 1.35718 2.45866V21.3158C1.35887 21.8836 1.58518 22.4277 1.98668 22.8292C2.38818 23.2307 2.93224 23.457 3.50003 23.4587H21.0715" stroke="#44494D" stroke-width="2.5" stroke-linejoin="round"/>
<path d="M21.0714 23.4586C20.3894 23.4586 19.7354 23.1877 19.2532 22.7055C18.7709 22.2233 18.5 21.5692 18.5 20.8872V5.45865H22.3571C22.6981 5.45865 23.0252 5.59411 23.2663 5.83523C23.5074 6.07634 23.6429 6.40337 23.6429 6.74436V20.8872C23.6429 21.5692 23.3719 22.2233 22.8897 22.7055C22.4075 23.1877 21.7534 23.4586 21.0714 23.4586Z" stroke="#44494D" stroke-width="2.5" stroke-linejoin="round"/>
<path d="M11.6429 5.45865H15.0715H11.6429ZM11.6429 8.88722H15.0715H11.6429ZM4.78577 12.3158H15.0715H4.78577ZM4.78577 15.7444H15.0715H4.78577ZM4.78577 19.1729H15.0715H4.78577Z" fill="#333333"/>
<path d="M11.6429 5.45865H15.0715M11.6429 8.88722H15.0715M4.78577 12.3158H15.0715M4.78577 15.7444H15.0715M4.78577 19.1729H15.0715" stroke="#44494D" stroke-linecap="round" stroke-linejoin="round"/>
<path d="M7.82145 5.8515V8.49436H5.17859V5.8515H7.82145Z" fill="#333333" stroke="#44494D" stroke-width="2.5"/>
</g>
<defs>
<clipPath id="clip0_653_13002">
<rect width="24" height="24" fill="white" transform="translate(0.5 0.315796)"/>
</clipPath>
</defs>
</svg>
