<svg width="23" height="23" viewBox="0 0 23 23" fill="none" xmlns="http://www.w3.org/2000/svg">
<path d="M22.012 16.6903V19.832C22.0132 20.1237 21.9533 20.4124 21.8362 20.6796C21.7192 20.9468 21.5475 21.1867 21.3321 21.3839C21.1168 21.5811 20.8625 21.7312 20.5857 21.8246C20.3089 21.918 20.0155 21.9527 19.7245 21.9265C16.4956 21.5763 13.394 20.4752 10.6689 18.7115C8.13355 17.1036 5.98404 14.9584 4.37298 12.4281C2.59962 9.69603 1.49601 6.58551 1.15158 3.34851C1.12536 3.05891 1.15985 2.76704 1.25284 2.49147C1.34584 2.21591 1.49531 1.96269 1.69174 1.74793C1.88816 1.53318 2.12724 1.36159 2.39375 1.24411C2.66027 1.12662 2.94837 1.06581 3.23972 1.06553H6.38767C6.89691 1.06053 7.3906 1.2405 7.77671 1.5719C8.16283 1.90331 8.41503 2.36353 8.4863 2.86678C8.61917 3.8722 8.86558 4.85938 9.22082 5.80951C9.362 6.18435 9.39256 6.59171 9.30887 6.98334C9.22518 7.37497 9.03075 7.73445 8.74863 8.01919L7.416 9.34918C8.90976 11.971 11.0849 14.1418 13.7119 15.6326L15.0445 14.3026C15.3298 14.021 15.69 13.827 16.0824 13.7435C16.4748 13.66 16.883 13.6905 17.2586 13.8314C18.2106 14.1859 19.1997 14.4318 20.2072 14.5644C20.7169 14.6362 21.1824 14.8924 21.5152 15.2844C21.8479 15.6764 22.0248 16.1767 22.012 16.6903Z" stroke="#CBCBCB" stroke-width="1.5" stroke-linecap="round" stroke-linejoin="round"/>
</svg>
