<svg width="28" height="23" viewBox="0 0 28 23" fill="none" xmlns="http://www.w3.org/2000/svg">
<path d="M26.0536 11.5872C26.0536 4.81499 20.3482 0.213837 14 0.213837C7.71878 0.213837 1.94646 4.7163 1.94646 11.6612C1.14289 12.0806 0.607178 12.8701 0.607178 13.7829V16.25C0.607178 17.6069 1.81253 18.7171 3.28575 18.7171H4.62503V11.1925C4.62503 6.41861 8.817 2.55759 14 2.55759C19.1831 2.55759 23.375 6.41861 23.375 11.1925V19.9507H12.6607V22.4178H23.375C24.8482 22.4178 26.0536 21.3076 26.0536 19.9507V18.4457C26.8438 18.0633 27.3929 17.3109 27.3929 16.4227V13.5855C27.3929 12.7221 26.8438 11.9696 26.0536 11.5872Z" fill="#333333"/>
<path d="M9.98211 13.7829C10.7218 13.7829 11.3214 13.2306 11.3214 12.5493C11.3214 11.8681 10.7218 11.3158 9.98211 11.3158C9.24244 11.3158 8.64282 11.8681 8.64282 12.5493C8.64282 13.2306 9.24244 13.7829 9.98211 13.7829Z" fill="#333333"/>
<path d="M18.0179 13.7829C18.7575 13.7829 19.3572 13.2306 19.3572 12.5493C19.3572 11.8681 18.7575 11.3158 18.0179 11.3158C17.2782 11.3158 16.6786 11.8681 16.6786 12.5493C16.6786 13.2306 17.2782 13.7829 18.0179 13.7829Z" fill="#333333"/>
<path d="M22.0358 10.1193C21.7164 8.38505 20.7412 6.81083 19.2828 5.67524C17.8244 4.53965 15.9767 3.91593 14.067 3.91449C10.009 3.91449 5.64289 7.01071 5.99111 11.8709C7.64263 11.2484 9.10126 10.2593 10.237 8.99153C11.3726 7.7238 12.1501 6.21694 12.5 4.60528C14.2545 7.84952 17.8572 10.0823 22.0358 10.1193Z" fill="#333333"/>
</svg>
